<?xml version="1.0" encoding="utf-8"?>
<!-- Generator: Adobe Illustrator 22.0.1, SVG Export Plug-In . SVG Version: 6.00 Build 0)  -->
<svg version="1.1" id="Layer_1" xmlns="http://www.w3.org/2000/svg" xmlns:xlink="http://www.w3.org/1999/xlink" x="0px" y="0px"
	 viewBox="0 0 50 50" style="enable-background:new 0 0 50 50;" xml:space="preserve">
<style type="text/css">
	.st0{fill:#336633;}
</style>
<g>
	<path class="st0" d="M48.4,5.8H30.8v5.7h5.8v3.9h-5.8v3.8h5.8v3.8h-5.8v3.8h5.8v3.8h-5.8v3.8h5.8v3.8h-5.8v5.8h17.6
		c0.9,0,1.6-0.8,1.6-1.7V7.4C50,6.5,49.3,5.8,48.4,5.8z M46.2,38.5h-7.7v-3.8h7.7V38.5z M46.2,30.8h-7.7v-3.8h7.7V30.8z M46.2,23.1
		h-7.7v-3.8h7.7V23.1z M46.2,15.4h-7.7v-3.8h7.7V15.4z"/>
	<path class="st0" d="M0,5.6v38.9L28.8,50V0L0,5.6z M18.2,34.8l-3.4-6.3c-0.1-0.2-0.3-0.7-0.4-1.3h-0.1c-0.1,0.3-0.2,0.8-0.5,1.4
		l-3.4,6.3H5.4l6.2-9.7l-5.7-9.7h5.3l2.8,5.8c0.2,0.5,0.4,1,0.6,1.6h0.1c0.1-0.4,0.3-0.9,0.6-1.7l3.1-5.8h4.9l-5.8,9.7l6,9.8
		L18.2,34.8L18.2,34.8z"/>
</g>
</svg>
