<svg xmlns="http://www.w3.org/2000/svg" viewBox="0 0 216 46"><defs><style>.cls-1{fill:#fff;}.cls-2{fill:none;}</style></defs><title>ms_logo_white</title><g id="Layer_2" data-name="Layer 2"><g id="Layer_1-2" data-name="Layer 1"><path class="cls-1" d="M89.67,9.2V36.8H84.88V15.17H84.8L76.24,36.8H73.06L64.29,15.17h-.06V36.8H59.8V9.2h6.87L74.6,29.66h.12L83.09,9.2Zm4,2.1a2.54,2.54,0,0,1,.84-1.94,3,3,0,0,1,4,0,2.59,2.59,0,0,1,.81,1.92,2.5,2.5,0,0,1-.83,1.9,2.82,2.82,0,0,1-2,.77,2.78,2.78,0,0,1-2-.78A2.5,2.5,0,0,1,93.68,11.3ZM98.82,17V36.8H94.16V17ZM113,33.41a6.48,6.48,0,0,0,2.29-.48,9.62,9.62,0,0,0,2.31-1.27V36A9,9,0,0,1,115,37a13.74,13.74,0,0,1-3.11.33,9.42,9.42,0,0,1-9.84-9.81,11.29,11.29,0,0,1,2.79-7.87q2.79-3.09,7.91-3.09a11,11,0,0,1,2.65.34,8.57,8.57,0,0,1,2.13.78V22.1a9.54,9.54,0,0,0-2.21-1.23,6.3,6.3,0,0,0-2.3-.43,5.85,5.85,0,0,0-4.44,1.79,6.73,6.73,0,0,0-1.7,4.83,6.47,6.47,0,0,0,1.63,4.68A5.89,5.89,0,0,0,113,33.41Zm17.86-16.72a6.11,6.11,0,0,1,1,.07,3.84,3.84,0,0,1,.75.2v4.71a4,4,0,0,0-1.07-.51,5.28,5.28,0,0,0-1.7-.24,3.63,3.63,0,0,0-2.9,1.44,7,7,0,0,0-1.18,4.45v10h-4.66V17h4.66v3.12h.08a5.41,5.41,0,0,1,1.92-2.53A5.21,5.21,0,0,1,130.81,16.69Zm2,10.51a10.74,10.74,0,0,1,2.77-7.78,10.23,10.23,0,0,1,7.7-2.87,9.49,9.49,0,0,1,7.25,2.76,10.44,10.44,0,0,1,2.61,7.46,10.54,10.54,0,0,1-2.77,7.66,10.06,10.06,0,0,1-7.55,2.85,9.86,9.86,0,0,1-7.3-2.7A10,10,0,0,1,132.81,27.2Zm4.85-.16a7.06,7.06,0,0,0,1.41,4.74,5,5,0,0,0,4,1.63A4.7,4.7,0,0,0,147,31.78a7.6,7.6,0,0,0,1.33-4.85,7.32,7.32,0,0,0-1.38-4.83,4.79,4.79,0,0,0-3.86-1.62,4.89,4.89,0,0,0-4,1.7A7.39,7.39,0,0,0,137.66,27Zm22.41-4.83a2,2,0,0,0,.63,1.57,10.73,10.73,0,0,0,2.81,1.43,9.6,9.6,0,0,1,3.92,2.51,5.24,5.24,0,0,1,1.12,3.38,5.44,5.44,0,0,1-2.14,4.49,9.12,9.12,0,0,1-5.8,1.69,14,14,0,0,1-2.73-.3,12.11,12.11,0,0,1-2.53-.76V31.64a11.78,11.78,0,0,0,2.73,1.41,8.21,8.21,0,0,0,2.66.52,4.67,4.67,0,0,0,2.33-.45,1.58,1.58,0,0,0,.75-1.48A2,2,0,0,0,163,30a11.31,11.31,0,0,0-2.95-1.54,9,9,0,0,1-3.66-2.42,5.31,5.31,0,0,1-1.08-3.43,5.39,5.39,0,0,1,2.13-4.39A8.47,8.47,0,0,1,163,16.51a13.66,13.66,0,0,1,2.33.23,11,11,0,0,1,2.16.6v4.43a9.88,9.88,0,0,0-2.16-1.06,7,7,0,0,0-2.44-.44,3.52,3.52,0,0,0-2.07.52A1.62,1.62,0,0,0,160.07,22.21Zm10.49,5a10.7,10.7,0,0,1,2.77-7.78,10.21,10.21,0,0,1,7.7-2.87,9.48,9.48,0,0,1,7.24,2.76,10.44,10.44,0,0,1,2.61,7.46,10.5,10.5,0,0,1-2.77,7.66,10,10,0,0,1-7.55,2.85,9.87,9.87,0,0,1-7.3-2.7A10,10,0,0,1,170.56,27.2Zm4.85-.16a7.06,7.06,0,0,0,1.4,4.74,5,5,0,0,0,4,1.63,4.68,4.68,0,0,0,3.87-1.63A7.54,7.54,0,0,0,186,26.93a7.32,7.32,0,0,0-1.38-4.83,4.77,4.77,0,0,0-3.85-1.62,4.9,4.9,0,0,0-4,1.7A7.45,7.45,0,0,0,175.41,27Zm30.92-6.22H199.4v16h-4.72v-16h-3.31V17h3.31V14.26a6.86,6.86,0,0,1,2-5.11,7.13,7.13,0,0,1,5.21-2,11.2,11.2,0,0,1,1.5.09,5,5,0,0,1,1.15.26v4a4.74,4.74,0,0,0-.8-.33,4.19,4.19,0,0,0-1.33-.19,2.79,2.79,0,0,0-2.25.91,4,4,0,0,0-.79,2.71V17h6.93V12.57L211,11.14V17h4.72v3.81H211v9.26a3.86,3.86,0,0,0,.67,2.58,2.63,2.63,0,0,0,2.08.75,3.1,3.1,0,0,0,1-.19,5,5,0,0,0,1-.46v3.85a5.78,5.78,0,0,1-1.48.46,10.07,10.07,0,0,1-2,.21,5.75,5.75,0,0,1-4.41-1.57A6.68,6.68,0,0,1,206.33,31Z"/><rect class="cls-1" width="21.86" height="21.86"/><rect class="cls-1" x="24.14" width="21.86" height="21.86"/><rect class="cls-1" y="24.14" width="21.86" height="21.86"/><rect class="cls-1" x="24.14" y="24.14" width="21.86" height="21.86"/><rect class="cls-2" width="216" height="46"/></g></g></svg>