<?xml version="1.0" encoding="utf-8"?>
<!-- Generator: Adobe Illustrator 22.0.1, SVG Export Plug-In . SVG Version: 6.00 Build 0)  -->
<svg version="1.1" id="Layer_1" xmlns="http://www.w3.org/2000/svg" xmlns:xlink="http://www.w3.org/1999/xlink" x="0px" y="0px"
	 viewBox="0 0 50 50" style="enable-background:new 0 0 50 50;" xml:space="preserve">
<style type="text/css">
	.st0{fill:#EA4C3A;}
</style>
<g>
	<g>
		<g>
			<path class="st0" d="M9.4,39.1L9.4,39.1C9,39.6,9,40.3,9.2,40.9c0.2,0.3,0.3,0.4,0.3,0.4c0,0,1.5-0.1,4.8-5.4
				c0.3-0.4,0.5-0.9,0.8-1.3C12.6,35.8,10.5,37.3,9.4,39.1z"/>
		</g>
	</g>
	<g>
		<g>
			<path class="st0" d="M23.6,23.4c-0.8,2-1.7,4.1-2.6,6.1c2.2-0.5,4.5-0.9,6.7-1.1C26.3,26.8,24.9,25.1,23.6,23.4z"/>
		</g>
	</g>
	<g>
		<g>
			<path class="st0" d="M23.7,9.2c-0.4-0.6-0.7-0.9-0.9-0.9c0,0,0,0,0,0c-0.7,0.3-1.8,2.8-0.5,7c0.1,0.5,0.3,0.9,0.6,1.4
				C23.9,13,24.3,10.2,23.7,9.2z"/>
		</g>
	</g>
	<g>
		<g>
			<path class="st0" d="M41.5,33c-0.3-0.6-2.4-1.7-6.9-1.9c0,0-0.1,0-0.1,0c0.9,0.9,1.5,1.4,1.5,1.4c0.6,0.6,2.8,2.1,4.2,2
				C41.1,34.3,41.7,33.3,41.5,33z"/>
		</g>
	</g>
	<g>
		<path class="st0" d="M45.6,0H4.4C0,0,0,0,0,4.4v41.2C0,50,0,50,4.4,50h41.2c4.4,0,4.4,0,4.4-4.4V4.4C50,0,50,0,45.6,0z M40.6,37.3
			c-3,0.4-6.1-2.4-6.5-2.7c-0.2-0.2-1.7-1.5-3.7-3.6c-3.7,0.2-7.6,0.8-11,1.9c-0.9,1.8-1.8,3.4-2.6,4.7c-1.6,2.5-4.5,6.8-7.4,6.6
			c-0.7,0-1.9-0.4-2.7-2.1c-0.7-1.5-0.6-3.2,0.3-4.6c2-3.2,5.9-5.5,10.4-7c1.7-3.3,3.2-6.8,4.3-10c-0.9-1.5-1.7-3-2.1-4.4
			c-1.7-5.5-0.1-9.6,2.2-10.6C23,5,24.9,5.3,26.3,7.7c1.2,2.2,0.3,7-1.5,12.3c1.9,2.8,4.5,5.7,6.8,8c1.1,0,2.2,0,3.3,0
			c3.6,0.2,8.1,1,9.4,3.5C45.3,34,43.2,37,40.6,37.3z"/>
	</g>
</g>
</svg>
