<svg class="lds-gear" width="73px"  height="73px"  xmlns="http://www.w3.org/2000/svg" xmlns:xlink="http://www.w3.org/1999/xlink" viewBox="0 0 100 100" preserveAspectRatio="xMidYMid" style="background: none;"><g transform="translate(50 50)">
<g transform="rotate(99.375)">
<animateTransform attributeName="transform" type="rotate" values="0;360" keyTimes="0;1" dur="3.2s" repeatCount="indefinite"></animateTransform><path d="M37.52332607858744 -6 L47.52332607858744 -6 L47.52332607858744 6 L37.52332607858744 6 A38 38 0 0 1 35.49615361854384 13.565510616587085 L35.49615361854384 13.565510616587085 L44.15640765638823 18.565510616587083 L38.15640765638823 28.957815462000347 L29.496153618543843 23.957815462000347 A38 38 0 0 1 23.95781546200035 29.49615361854384 L23.95781546200035 29.49615361854384 L28.95781546200035 38.156407656388225 L18.565510616587098 44.156407656388225 L13.565510616587096 35.49615361854384 A38 38 0 0 1 6.000000000000006 37.52332607858744 L6.000000000000006 37.52332607858744 L6.000000000000007 47.52332607858744 L-6.000000000000001 47.52332607858744 L-6.000000000000002 37.52332607858744 A38 38 0 0 1 -13.565510616587074 35.49615361854384 L-13.565510616587074 35.49615361854384 L-18.565510616587073 44.15640765638823 L-28.957815462000347 38.15640765638823 L-23.957815462000347 29.496153618543843 A38 38 0 0 1 -29.49615361854383 23.957815462000365 L-29.49615361854383 23.957815462000365 L-38.15640765638821 28.95781546200037 L-44.156407656388225 18.5655106165871 L-35.496153618543836 13.565510616587098 A38 38 0 0 1 -37.52332607858744 6.000000000000009 L-37.52332607858744 6.000000000000009 L-47.52332607858744 6.00000000000001 L-47.52332607858744 -5.999999999999999 L-37.52332607858744 -6 A38 38 0 0 1 -35.49615361854385 -13.565510616587073 L-35.49615361854385 -13.565510616587073 L-44.15640765638824 -18.56551061658707 L-38.15640765638824 -28.95781546200034 L-29.496153618543847 -23.957815462000344 A38 38 0 0 1 -23.957815462000365 -29.496153618543826 L-23.957815462000365 -29.496153618543826 L-28.95781546200037 -38.15640765638821 L-18.565510616587105 -44.156407656388225 L-13.5655106165871 -35.496153618543836 A38 38 0 0 1 -6.0000000000000115 -37.52332607858744 L-6.0000000000000115 -37.52332607858744 L-6.000000000000013 -47.52332607858744 L5.999999999999996 -47.52332607858744 L5.999999999999997 -37.52332607858744 A38 38 0 0 1 13.565510616587053 -35.49615361854385 L13.565510616587053 -35.49615361854385 L18.565510616587044 -44.15640765638824 L28.957815462000323 -38.156407656388254 L23.95781546200033 -29.49615361854386 A38 38 0 0 1 29.496153618543826 -23.95781546200037 L29.496153618543826 -23.95781546200037 L38.15640765638821 -28.957815462000376 L44.156407656388225 -18.565510616587105 L35.496153618543836 -13.565510616587101 A38 38 0 0 1 37.52332607858743 -6.000000000000013 M0 -20A20 20 0 1 0 0 20 A20 20 0 1 0 0 -20" fill="#4b7ede"></path></g></g></svg>